<?xml version="1.0" encoding="UTF-8" standalone="no"?>
<svg
   xmlns:dc="http://purl.org/dc/elements/1.1/"
   xmlns:cc="http://creativecommons.org/ns#"
   xmlns:rdf="http://www.w3.org/1999/02/22-rdf-syntax-ns#"
   xmlns:svg="http://www.w3.org/2000/svg"
   xmlns="http://www.w3.org/2000/svg"
   xmlns:sodipodi="http://sodipodi.sourceforge.net/DTD/sodipodi-0.dtd"
   xmlns:inkscape="http://www.inkscape.org/namespaces/inkscape"
   version="1.1"
   id="Capa_1"
   x="0px"
   y="0px"
   viewBox="0 0 186.846 186.846"
   style="enable-background:new 0 0 186.846 186.846;"
   xml:space="preserve"
   sodipodi:docname="basketball_red.svg"
   inkscape:version="1.0alpha (9dee831, 2019-01-15)"><metadata
   id="metadata138">
  <rdf:RDF>
    <cc:Work
   rdf:about="">
      <dc:format>image/svg+xml</dc:format>

      <dc:type
   rdf:resource="http://purl.org/dc/dcmitype/StillImage" />

      <dc:title></dc:title>

    </cc:Work>

  </rdf:RDF>

</metadata>

<defs
   id="defs136" />

<sodipodi:namedview
   pagecolor="#ffffff"
   bordercolor="#666666"
   inkscape:document-rotation="0"
   borderopacity="1"
   objecttolerance="10"
   gridtolerance="10"
   guidetolerance="10"
   inkscape:pageopacity="0"
   inkscape:pageshadow="2"
   inkscape:window-width="1920"
   inkscape:window-height="1030"
   id="namedview134"
   showgrid="false"
   inkscape:zoom="4.142449"
   inkscape:cx="93.422997"
   inkscape:cy="93.422997"
   inkscape:window-x="0"
   inkscape:window-y="0"
   inkscape:window-maximized="1"
   inkscape:current-layer="Capa_1" />


<path
   d="M93.423,0.001C41.909,0.001,0,41.91,0,93.423s41.909,93.422,93.423,93.422s93.423-41.909,93.423-93.422  S144.937,0.001,93.423,0.001z M154.303,44.061c10.488,12.91,16.945,29.205,17.482,46.968c-19.428-4.022-37.02-3.55-52.55-0.505  c-2.812-6.576-5.723-12.841-8.661-18.762C127.487,64.476,142.211,55.17,154.303,44.061z M143.779,33.365  c-12.003,10.956-25.913,19.068-40.156,25.057C93.169,39.305,83.167,24.909,77.074,16.728c5.276-1.124,10.743-1.727,16.349-1.727  C112.58,15.001,130.145,21.915,143.779,33.365z M61.924,21.627c4.601,5.962,15.56,20.89,27.332,42.129  C59.67,73.395,30.962,75.019,17.167,75.17C22.917,51.15,39.738,31.399,61.924,21.627z M15.082,90.208  c0.148,0,0.291,0.001,0.442,0.001c9.532,0,26.996-0.641,47.556-4.39c11.73-2.139,22.853-5.018,33.29-8.586  c2.717,5.415,5.418,11.127,8.037,17.114c-14.614,4.705-26.938,11.475-36.7,18.197c-16.37,11.273-27.838,23.78-34.1,31.513  C22.013,130.384,15,112.712,15,93.423C15,92.345,15.038,91.276,15.082,90.208z M44.416,154.582  c5.391-6.788,16.364-19.143,32.237-29.984c10.787-7.368,21.947-12.842,33.436-16.435c6.666,17.278,12.357,36.369,15.75,56.64  c-9.888,4.508-20.858,7.042-32.416,7.042C74.891,171.845,57.852,165.37,44.416,154.582z M139.639,156.726  c-3.497-18.617-8.712-36.122-14.741-52.12c14.83-2.502,30.157-1.986,45.899,1.55C167.402,126.846,155.889,144.83,139.639,156.726z"
   id="path101" />


<g
   id="g103">
</g>


<g
   id="g105">
</g>


<g
   id="g107">
</g>


<g
   id="g109">
</g>


<g
   id="g111">
</g>


<g
   id="g113">
</g>


<g
   id="g115">
</g>


<g
   id="g117">
</g>


<g
   id="g119">
</g>


<g
   id="g121">
</g>


<g
   id="g123">
</g>


<g
   id="g125">
</g>


<g
   id="g127">
</g>


<g
   id="g129">
</g>


<g
   id="g131">
</g>


<path
   style="fill:#ff0000;stroke:#ff0000;stroke-width:0.241403"
   d="M 87.651203,186.55422 C 56.522791,184.3915 29.171644,167.62837 13.211383,140.93112 6.1549656,129.12763 1.8442205,115.80709 0.47749227,101.58242 0.11309293,97.789817 0.1820203,88.003219 0.60075759,84.080697 2.8720786,62.80409 11.815949,43.678015 26.549785,28.589844 32.166001,22.838562 37.406107,18.546607 43.576971,14.643576 55.207465,7.2873645 67.69495,2.7686465 81.673983,0.85780047 85.035359,0.39832145 86.666855,0.32422835 93.422997,0.32422835 c 8.844983,0 12.313003,0.3389452 19.638733,1.91938485 12.05683,2.6011173 24.0283,7.8677678 34.13186,15.0157588 7.45787,5.276229 15.08475,12.67634 20.61437,20.001449 11.50113,15.235581 18.05434,33.405949 18.75763,52.010042 0.71384,18.883277 -3.56865,35.905007 -13.02756,51.780967 -15.06085,25.27832 -41.23812,42.09316 -70.25533,45.12817 -4.441121,0.46451 -11.797219,0.64062 -15.631497,0.37422 z m 13.255287,-14.98154 c 7.50154,-0.64833 17.15202,-3.11411 23.5944,-6.02857 1.47885,-0.66902 1.50344,-0.69574 1.3634,-1.48225 -3.10147,-17.41943 -7.64172,-34.18792 -13.86131,-51.19384 -1.05081,-2.87319 -1.86901,-4.76772 -2.05906,-4.76772 -0.17346,0 -1.6532,0.47494 -3.28833,1.05542 -18.347831,6.51357 -35.022134,17.10471 -50.010149,31.76534 -5.003248,4.89396 -12.235265,12.96114 -12.222331,13.63378 0.0062,0.32133 3.209582,2.72531 6.392241,4.79705 14.77111,9.61515 31.896573,13.79327 50.091139,12.22079 z m 40.61739,-16.09702 c 12.8791,-9.87604 22.69978,-24.31527 27.31205,-40.1566 0.76546,-2.62906 2.0702,-8.31833 2.07554,-9.05031 0.003,-0.4471 -9.21993,-2.08103 -15.80998,-2.80081 -4.50867,-0.49244 -19.6022,-0.41753 -23.89891,0.11861 -4.05689,0.50623 -6.39718,0.89705 -6.39718,1.0683 0,0.0693 0.44869,1.33459 0.99709,2.81171 4.05239,10.91519 8.61852,26.12986 11.18221,37.25996 0.74292,3.22536 2.54629,11.74715 2.54629,12.03248 0,0.21673 0.22892,0.0693 1.99289,-1.28334 z M 36.468613,140.87077 c 3.185179,-3.74325 13.231151,-13.85232 16.88147,-16.98749 15.424229,-13.24752 31.623219,-22.77331 48.472807,-28.504344 2.32873,-0.792068 2.67918,-0.979445 2.55632,-1.366798 -0.21135,-0.666289 -3.88101,-8.652917 -5.97747,-13.009331 -1.008508,-2.095656 -1.974325,-3.802098 -2.151928,-3.802098 -0.177219,0 -1.293119,0.330244 -2.479777,0.733875 -1.18666,0.403633 -4.189208,1.329875 -6.672333,2.058316 -20.196405,5.924756 -43.289532,9.446484 -65.06967,9.923195 l -7.06104,0.154546 0.0026,4.126419 c 0.0093,14.87398 4.407591,29.44158 12.725219,42.14741 1.926908,2.9435 5.558926,7.7249 5.867944,7.7249 0.101286,0 1.40893,-1.43937 2.905873,-3.1986 z M 171.87642,90.055423 c -0.004,-1.784804 -0.66719,-7.613969 -1.21527,-10.682086 -2.12893,-11.917634 -7.11152,-23.258281 -14.65966,-33.366197 -0.87074,-1.166033 -1.65704,-2.120058 -1.74733,-2.120058 -0.0903,0 -0.3711,0.231733 -0.62403,0.514961 -1.43862,1.61097 -9.01352,7.675457 -13.73704,10.997922 -7.40366,5.207644 -18.37015,11.363321 -27.3389,15.345794 -1.09536,0.486386 -1.99157,0.980423 -1.99157,1.097858 0,0.117438 1.01392,2.321349 2.25316,4.897583 1.63093,3.390516 5.90205,12.808952 6.30208,13.897007 0.008,0.0218 1.1552,-0.169267 2.5493,-0.424578 3.79469,-0.694948 9.27029,-1.356106 13.945,-1.683803 5.18568,-0.363517 16.65996,-0.166358 21.54125,0.370134 3.89434,0.428017 10.68794,1.446086 12.91507,1.935413 0.79663,0.175031 1.52989,0.329143 1.62947,0.342476 0.0996,0.01333 0.17989,-0.49176 0.17847,-1.122426 z M 25.830131,75.020272 c 17.480403,-0.913837 33.191056,-3.146501 48.40132,-6.878386 6.38277,-1.56603 15.087693,-4.093122 15.087693,-4.380046 0,-0.237831 -1.882867,-3.591649 -4.788163,-8.528813 C 78.161116,44.408293 71.4653,34.233911 64.638888,25.006741 L 62.011619,21.455497 60.63804,22.061815 C 59.882569,22.39529 58.158968,23.252686 56.807811,23.96714 37.877188,33.977125 23.622093,51.593103 17.84771,72.11276 c -0.38945,1.383935 -0.70809,2.660353 -0.70809,2.836486 0,0.398757 2.09408,0.415872 8.690511,0.07103 z M 112.85595,54.273221 c 10.69561,-5.295701 19.18575,-10.758798 27.28971,-17.559944 4.2577,-3.573224 4.06284,-3.134083 2.11303,-4.761968 -2.66265,-2.223032 -8.86161,-6.244057 -12.62523,-8.189493 -9.6009,-4.962758 -19.08126,-7.693958 -29.909556,-8.616649 -4.231928,-0.360608 -12.212256,-0.17702 -16.319136,0.375423 -2.975655,0.400275 -6.140701,0.992397 -6.333113,1.18481 -0.05967,0.05967 1.129496,1.827542 2.642586,3.92861 7.429907,10.317128 14.765778,21.836241 21.524789,33.799186 l 2.34412,4.14893 1.73956,-0.720147 c 0.95676,-0.396079 4.34671,-2.011022 7.53324,-3.588758 z"
   id="path140"
   inkscape:connector-curvature="0" />

<path
   inkscape:connector-curvature="0"
   id="path86"
   d="m 90.984454,186.69957 c -0.0529,-0.0491 -1.421611,-0.15717 -3.041573,-0.24005 -1.619959,-0.0829 -3.086483,-0.19816 -3.258941,-0.25616 -0.172456,-0.058 -1.073979,-0.17631 -2.003381,-0.26292 -2.24703,-0.2094 -2.531476,-0.24557 -3.379643,-0.42976 -0.398315,-0.0865 -1.104419,-0.20458 -1.56912,-0.26239 -1.117071,-0.13896 -3.814603,-0.72329 -6.840248,-1.48171 C 41.607144,176.42611 17.806119,155.46315 6.6495545,127.18489 5.1493188,123.38228 2.9126721,116.20154 2.5473191,114.01468 2.5029555,113.74914 2.1760086,112.01104 1.8207705,110.15223 1.4655325,108.29343 1.1291076,106.41942 1.0731596,105.98776 0.79133044,103.81336 0.7268777,103.27355 0.57598797,101.82382 0.37147784,99.858927 0.368998,88.123004 0.57254486,85.529116 0.65589549,84.466942 0.82695543,82.901564 0.95267809,82.050495 1.0784007,81.199428 1.1663645,80.439009 1.1481532,80.360673 c -0.018211,-0.07833 0.040974,-0.468319 0.1315236,-0.866634 0.090549,-0.398316 0.2109195,-1.10442 0.2674892,-1.569121 0.05657,-0.464701 0.3873662,-2.148422 0.7351034,-3.7416 C 5.5124265,59.384154 11.799448,46.318246 21.354619,34.546487 23.998195,31.28966 32.16274,23.195125 35.274242,20.746224 47.085804,11.449957 59.192449,5.669 73.802487,2.3488764 74.96782,2.0840552 76.301483,1.8145881 76.766184,1.7500606 77.230885,1.685533 78.208567,1.519087 78.938811,1.3801804 80.379042,1.106221 80.791694,1.0397612 82.801261,0.75811328 84.601797,0.50576174 102.05418,0.5197459 104.16543,0.7752319 c 2.31595,0.2802553 2.32137,0.2810521 3.13824,0.4611405 0.39832,0.087813 1.12798,0.2062604 1.62147,0.2632176 0.49349,0.056957 0.98695,0.1589947 1.09658,0.2267499 0.10963,0.067755 0.62923,0.1779772 1.15467,0.2449377 1.77797,0.226579 7.85462,1.8392076 11.4309,3.0335431 10.40963,3.4764044 20.24395,8.7969253 28.63175,15.4902083 3.77004,3.008412 10.07176,9.121174 13.1779,12.78275 9.33076,10.99929 16.32272,24.700028 19.54083,38.29024 0.40347,1.703877 0.79956,3.369536 0.88019,3.701465 0.17153,0.70608 0.21585,0.959937 0.42146,2.414031 0.0845,0.597473 0.26702,1.792418 0.40564,2.655434 0.13862,0.863016 0.28807,1.94933 0.33211,2.414031 0.044,0.464701 0.16336,1.713962 0.26514,2.776136 0.36419,3.800855 0.21639,14.159431 -0.26179,18.346634 -0.3319,2.90635 -0.46485,3.84951 -0.68058,4.82806 -0.0878,0.39832 -0.22147,1.15874 -0.29701,1.68982 -0.50388,3.54248 -2.39534,10.36023 -4.24108,15.28693 -10.79517,28.81474 -35.0174,50.56682 -64.69643,58.09877 -1.90898,0.48446 -3.85109,0.93017 -4.31579,0.99047 -0.4647,0.0603 -1.06217,0.18023 -1.32771,0.26651 -0.5378,0.17473 -0.69283,0.2015 -2.41404,0.41691 -0.66385,0.0831 -1.49504,0.2086 -1.84708,0.27893 -1.70281,0.34016 -3.68308,0.48424 -9.37816,0.68229 -2.589048,0.09 -4.935653,0.21114 -5.214678,0.2691 -0.279026,0.058 -0.550605,0.0652 -0.603508,0.016 z m 8.956427,-14.98673 c 0.863019,-0.0681 1.949329,-0.17092 2.414029,-0.22845 0.4647,-0.0575 1.38807,-0.1699 2.05193,-0.2497 5.65845,-0.68017 15.93043,-3.54934 20.15716,-5.63028 1.44323,-0.71055 1.57308,-1.00562 1.1762,-2.67281 -0.11492,-0.48274 -0.26459,-1.28254 -0.3326,-1.77734 -0.42586,-3.09827 -3.13709,-15.15127 -4.84769,-21.55085 -2.58728,-9.67933 -6.46196,-21.73329 -9.33113,-29.02872 -0.73165,-1.86036 -1.08088,-2.47438 -1.40731,-2.47438 -1.52733,0 -11.935096,4.25637 -18.329698,7.49613 -11.935374,6.04694 -22.378443,13.44225 -32.759165,23.19855 -5.711015,5.36749 -14.314438,14.78875 -14.314438,15.67516 0,1.04441 9.297553,7.15073 14.95365,9.82106 6.321956,2.98469 12.006733,4.87697 18.60138,6.19183 3.646391,0.72702 5.885709,1.00356 10.137897,1.25195 1.260761,0.0736 2.347075,0.19329 2.414031,0.26589 0.123839,0.13427 6.559619,-0.0626 9.415754,-0.28804 z m 42.618629,-16.93203 c 3.28771,-2.58958 9.49374,-8.79368 12.16364,-12.15986 7.39127,-9.31882 12.65527,-20.20905 15.3443,-31.74451 1.1507,-4.93628 1.16499,-4.79948 -0.54213,-5.18715 -0.76344,-0.17338 -1.62167,-0.34286 -1.90719,-0.37663 -0.28552,-0.0338 -0.72004,-0.12341 -0.96561,-0.19919 -0.24557,-0.0758 -0.93533,-0.20535 -1.5328,-0.28793 -1.97162,-0.27248 -2.12081,-0.29739 -2.57106,-0.42928 -0.24556,-0.0719 -1.04396,-0.1966 -1.7742,-0.27704 -0.73024,-0.0804 -1.65361,-0.19523 -2.05193,-0.25508 -3.90365,-0.58652 -5.54515,-0.66604 -14.24278,-0.68999 -7.4403,-0.0205 -13.92115,0.18682 -14.36223,0.45943 -0.0936,0.0579 -0.70253,0.16542 -1.35311,0.23903 -0.65058,0.0736 -1.45445,0.17773 -1.78638,0.23139 -0.33193,0.0537 -0.90581,0.14549 -1.27528,0.20408 -0.36947,0.0586 -0.74111,0.17587 -0.82587,0.26063 -0.0848,0.0848 0.20488,1.15847 0.64365,2.38601 4.82801,13.50741 8.7489,26.64114 11.51247,38.56306 0.72327,3.12014 1.34859,5.89024 1.38961,6.15578 0.12758,0.82601 0.88872,4.57066 0.99361,4.88842 0.0548,0.16596 0.18944,0.30175 0.29923,0.30175 0.10978,0 1.38961,-0.93731 2.84406,-2.08292 z M 36.840736,140.62937 c 4.694957,-5.23305 14.517323,-14.92787 18.440572,-18.2011 14.420398,-12.03119 29.635829,-20.92448 45.263082,-26.455878 1.8588,-0.657939 3.52985,-1.339765 3.71343,-1.515171 0.28222,-0.269633 0.007,-1.040076 -1.7823,-4.985616 -3.176178,-7.004501 -5.695159,-12.053196 -6.089245,-12.204421 -0.193269,-0.07416 -2.70433,0.581289 -5.580138,1.456561 -2.875806,0.875273 -5.880529,1.767143 -6.677159,1.981937 -0.79663,0.214793 -1.611366,0.453729 -1.810523,0.530973 -0.199158,0.07724 -0.525052,0.174078 -0.72421,0.215194 -0.199157,0.04112 -2.371785,0.57396 -4.828061,1.184097 -2.456277,0.610139 -4.791852,1.165861 -5.190167,1.234943 -0.398315,0.06908 -1.158735,0.229222 -1.689822,0.355872 -0.531086,0.126649 -1.345822,0.284298 -1.810523,0.350331 -0.464701,0.06603 -1.062173,0.190651 -1.327717,0.27693 -0.544233,0.176828 -0.765692,0.219001 -2.283062,0.434784 -0.591826,0.08416 -1.153767,0.201055 -1.248759,0.259762 -0.09499,0.05871 -0.697083,0.164917 -1.337984,0.23602 -0.640899,0.0711 -1.382535,0.197685 -1.648078,0.281297 -0.265544,0.08361 -0.645754,0.175619 -0.844911,0.204459 -0.199158,0.02884 -0.79663,0.122577 -1.327717,0.208304 -0.531087,0.08573 -1.345822,0.200568 -1.810523,0.2552 -0.464701,0.05463 -1.985541,0.274733 -3.379644,0.489116 -1.394102,0.214383 -2.928354,0.431858 -3.409446,0.483279 -0.481093,0.05142 -1.784669,0.211878 -2.896838,0.356575 -1.992736,0.259259 -2.536024,0.319806 -5.401766,0.601991 -3.294797,0.324432 -5.365099,0.490869 -9.052616,0.727761 -2.590513,0.166418 -8.294018,0.43017 -8.811212,0.407464 -0.265544,-0.01166 -2.259051,0.03951 -4.430015,0.113696 l -3.947209,0.134894 0.123645,5.465143 c 0.06801,3.005831 0.178986,5.899673 0.246625,6.430763 0.06764,0.53108 0.192462,1.60764 0.277385,2.39236 0.08492,0.78471 0.258422,1.92534 0.385553,2.53473 0.127132,0.60939 0.276801,1.32525 0.332599,1.59079 0.0558,0.26554 0.154094,0.81012 0.218434,1.21017 0.186813,1.16154 1.316586,5.50176 1.995423,7.66575 1.582063,5.0433 4.633975,11.72341 7.60494,16.64591 2.44691,4.0542 6.901985,10.08513 7.449934,10.08513 0.110963,0 1.590573,-1.548 3.288023,-3.44 z M 171.79785,88.607005 c -0.0757,-1.427295 -0.19033,-2.975293 -0.25475,-3.439994 -0.0644,-0.464701 -0.18266,-1.496699 -0.26275,-2.293329 -0.0801,-0.79663 -0.20372,-1.641616 -0.27473,-1.877747 -0.071,-0.236128 -0.18057,-0.779285 -0.24344,-1.207015 -0.0629,-0.427728 -0.15663,-0.99495 -0.20836,-1.260494 -0.0517,-0.265543 -0.15413,-0.87534 -0.22755,-1.355102 -0.73636,-4.811269 -4.14834,-14.300074 -7.25259,-20.169648 -2.59216,-4.901277 -7.79315,-12.682686 -8.71283,-13.0356 -0.23273,-0.08931 -0.90542,0.378452 -1.8637,1.295943 -1.95449,1.871306 -8.15037,6.783676 -12.12125,9.610269 -6.45798,4.596981 -13.74487,8.843433 -23.23505,13.540264 -3.61803,1.790617 -6.57823,3.366175 -6.57823,3.50124 0,0.135065 1.34343,3.144686 2.98539,6.688046 1.64198,3.543358 3.50957,7.637417 4.15022,9.097906 0.64064,1.460488 1.23889,2.744944 1.32943,2.854345 0.0905,0.109402 0.80295,0.07524 1.58311,-0.07591 2.36542,-0.458275 4.64788,-0.812879 7.09147,-1.101739 2.39274,-0.282847 5.80151,-0.63433 6.87998,-0.709404 1.49112,-0.103796 16.70024,-0.106213 18.46734,-0.0029 3.07471,0.179702 5.67794,0.448032 7.93308,0.817704 0.84475,0.138474 1.60517,0.235146 1.68983,0.21483 0.0846,-0.02033 0.47981,0.03501 0.87813,0.122954 0.39831,0.08794 1.26736,0.227872 1.93122,0.310953 1.58609,0.198499 1.80002,0.23313 2.65543,0.429884 0.39832,0.09162 1.08894,0.21227 1.53471,0.268119 0.44577,0.05585 0.87125,0.162293 0.9455,0.236541 0.0742,0.07425 0.40117,0.134997 0.7265,0.134997 h 0.59151 l -0.13762,-2.595083 z M 28.968371,74.93005 c 4.141724,-0.301322 5.25558,-0.385695 6.517884,-0.493713 1.325928,-0.113464 3.36626,-0.306867 5.190166,-0.491979 1.427523,-0.144881 4.921999,-0.546819 6.276481,-0.721926 0.398315,-0.05149 1.321682,-0.158201 2.051926,-0.237128 0.730244,-0.07892 1.979505,-0.255093 2.776136,-0.391486 0.79663,-0.13639 1.936052,-0.306379 2.53205,-0.377752 0.595998,-0.07137 1.899574,-0.282992 2.896837,-0.470265 0.997263,-0.187271 2.193415,-0.39425 2.658116,-0.45995 0.464701,-0.0657 1.116489,-0.188956 1.448419,-0.273904 0.331929,-0.08495 0.841688,-0.185675 1.132801,-0.223838 2.941383,-0.385613 14.537755,-3.147399 20.632729,-4.913883 5.749797,-1.666442 6.031753,-1.763423 6.169341,-2.121972 0.196818,-0.5129 -6.052647,-11.244945 -11.857645,-20.362829 -5.119035,-8.040447 -14.931892,-21.95283 -15.484046,-21.95283 -0.154186,0 -1.488907,0.593144 -2.966047,1.318098 -16.58173,8.138025 -30.112991,22.263527 -37.586949,39.237621 -1.360309,3.089395 -3.922848,10.652677 -4.135892,12.206997 l -0.155186,1.132207 5.046178,-0.134872 c 2.775398,-0.07418 5.860913,-0.194149 6.856701,-0.266596 z M 108.91005,56.295129 c 12.986,-6.144472 21.58736,-11.508048 31.3822,-19.569098 3.56579,-2.934609 3.84756,-3.408491 2.61276,-4.394149 -8.91891,-7.119383 -19.33434,-12.375467 -29.79024,-15.033463 -1.58369,-0.402588 -3.10452,-0.761808 -3.37965,-0.798268 -0.27512,-0.03646 -0.7718,-0.135792 -1.10373,-0.220739 -0.33193,-0.08495 -0.98372,-0.203416 -1.44842,-0.263264 -0.4647,-0.05985 -1.47103,-0.217172 -2.2363,-0.349608 -2.84054,-0.491581 -5.279734,-0.627122 -11.28227,-0.626933 -6.460799,2.03e-4 -8.971229,0.144852 -12.070155,0.695469 -0.331929,0.05898 -1.092349,0.176144 -1.689821,0.260371 -2.144188,0.302272 -2.777097,0.511341 -2.746487,0.907251 0.01629,0.210923 1.32701,2.213545 2.912674,4.450272 7.920235,11.172242 14.734619,21.903901 21.095109,33.221718 2.07114,3.685368 2.32564,4.036933 2.83372,3.914421 0.30702,-0.07403 2.5168,-1.061322 4.91061,-2.19398 z"
   style="fill:#ff8080;stroke:#ff8080;stroke-width:0.241403" />
</svg>
